<svg width="281" height="67" viewBox="0 0 281 67" fill="none" xmlns="http://www.w3.org/2000/svg">
<path fill-rule="evenodd" clip-rule="evenodd" d="M61.1814 0.643606C60.2254 1.02961 59.9334 7.41061 59.9404 27.8146C59.9444 42.4816 60.2324 56.8446 60.5794 59.7316L61.2104 64.9816H67.4854H73.7604L74.4344 57.7316C74.8044 53.7446 74.9554 39.5526 74.7694 26.1936C74.4874 5.94961 74.1814 1.74861 72.9314 0.959606C71.3744 -0.0233942 63.3684 -0.238394 61.1814 0.643606ZM236.24 1.23161C235.2 2.83761 234.558 48.1856 235.44 57.7756L236.11 65.0686L242.77 64.7756L249.431 64.4816L249.953 48.6256C250.458 33.2936 250.556 32.7036 252.93 30.7816C254.759 29.3006 256.283 28.9376 258.908 29.3576C265.114 30.3496 265.929 32.4346 265.945 47.3426C265.963 65.4756 265.752 64.9816 273.502 64.9816H279.84L280.508 61.4236C280.875 59.4676 280.987 51.2476 280.757 43.1586C280.379 29.8376 280.108 28.0366 277.885 24.0546C274.169 17.3976 270.961 15.4786 263.584 15.4976C259.019 15.5086 256.41 16.0916 253.661 17.7136L249.931 19.9146V11.1476C249.931 5.66261 249.482 1.93261 248.731 1.18161C247.128 -0.421394 237.284 -0.382394 236.24 1.23161ZM0.598356 1.64861C-0.288644 2.53461 -0.149644 56.3666 0.752356 61.4816L1.45736 65.4816L7.27436 65.7836C12.4334 66.0516 13.1524 65.8536 13.6284 64.0336C14.2874 61.5126 14.7684 61.5076 17.9314 63.9816C19.9364 65.5506 22.0344 65.9416 28.5314 65.9596C35.8684 65.9796 37.0014 65.7136 40.5674 63.1306C46.8254 58.5966 49.6754 54.5306 50.9724 48.2866C53.1994 37.5546 50.6024 27.8216 43.7694 21.2926C39.2834 17.0076 36.1424 15.9816 27.5014 15.9816C21.6304 15.9816 19.6854 16.3876 17.5664 18.0546L14.9314 20.1266V11.7546C14.9314 6.57561 14.4734 2.92361 13.7314 2.18161C12.4764 0.926606 1.75536 0.491606 0.598356 1.64861ZM210.183 3.10261C204.884 5.13961 204.405 5.79561 203.711 11.9716C203.534 13.5426 202.693 14.5966 201.431 14.8286C198.031 15.4546 196.931 17.0636 196.931 21.4126C196.931 26.0706 198.422 28.6376 201.431 29.1596C203.325 29.4886 203.446 30.3996 203.706 46.4216C203.875 56.8246 204.403 63.8456 205.078 64.6596C206.351 66.1926 215.652 66.4426 217.931 65.0046C219.149 64.2346 219.493 60.7636 219.764 46.5196L220.096 28.9816H222.814C226.583 28.9816 227.931 27.2666 227.931 22.4726C227.931 17.6276 226.377 15.2446 222.931 14.8026C220.686 14.5146 220.369 13.9086 219.828 8.87361C218.88 0.0566053 218.579 -0.124394 210.183 3.10261ZM85.5384 16.5636C85.2044 17.4336 84.9314 25.4206 84.9324 34.3136C84.9334 50.1116 85.0004 50.6236 87.8604 56.6686C91.5724 64.5156 94.1814 65.9816 104.434 65.9816C110.894 65.9816 112.59 65.6066 115.713 63.4836C119.247 61.0816 119.416 61.0606 120.103 62.9186C121.085 65.5726 124.404 67.1626 128.188 66.7916C130.581 66.5576 131.521 65.8716 132.042 63.9816C132.92 60.7996 133.115 24.7306 132.282 19.6886L131.656 15.8966L125.043 16.1886L118.431 16.4816L117.885 31.4816C117.295 47.6706 116.621 50.0566 111.951 52.4716C108.022 54.5026 107.169 54.4006 103.275 51.4306L99.9314 48.8796V33.1306C99.9314 22.2146 99.5634 17.0136 98.7314 16.1816C96.8624 14.3126 86.2844 14.6186 85.5384 16.5636ZM163.75 15.9046C162.275 16.3816 160.037 17.4936 158.777 18.3766C155.809 20.4556 155.199 20.4006 154.431 17.9816C153.9 16.3096 152.918 15.9816 148.443 15.9816H143.09L142.423 22.2316C142.055 25.6696 141.907 36.4866 142.093 46.2696C142.477 66.4666 142.249 65.9416 150.662 65.9666C156.948 65.9846 156.64 66.8146 157.257 48.2336C157.739 33.7656 158.804 30.5536 163.511 29.3726C167.289 28.4236 172.228 30.1986 173.654 33.0156C174.453 34.5946 174.907 40.0416 174.916 48.1666C174.924 55.1436 175.37 62.0056 175.906 63.4166C176.791 65.7446 177.394 65.9816 182.431 65.9816C187.468 65.9816 188.071 65.7446 188.956 63.4166C189.492 62.0056 189.931 53.9566 189.931 45.5306C189.931 30.7576 189.833 30.0216 187.18 24.9426C185.276 21.2996 183.292 19.0866 180.742 17.7626C176.54 15.5826 167.725 14.6186 163.75 15.9046ZM32.9644 31.4986C36.1244 33.1326 38.9314 37.5936 38.9314 40.9816C38.9314 46.5106 33.2114 51.9816 27.4314 51.9816C21.6514 51.9816 15.9314 46.5106 15.9314 40.9816C15.9314 32.8626 25.4034 27.5886 32.9644 31.4986Z" fill="black"/>
</svg>
